# xmcd
#
# Track frame offsets: 
#        150
#        21905
#        37121
#        53353
#        71855
#        94401
#        112040
#        132987
#        149332
#        159748
#
# Disc length: 2375 seconds
#
# Revision: 0
# Processed by: cddbd v1.5.2PL0 Copyright (c) Steve Scherf et al.
# Submitted via: ExactAudioCopy v0.99pb5
#
DISCID=9409450a
DTITLE=City of Ships - Look What God Did to Us
DYEAR=2009
DGENRE=Metal
TTITLE0=Wraiths in Flight
TTITLE1=Spring Tiger
TTITLE2=Praise Feeder
TTITLE3=Grand Contour
TTITLE4=March of the Slaves
TTITLE5=Welcome to Earth
TTITLE6=Silver Anniversary
TTITLE7=Complacence in the Nest
TTITLE8=Grandfather Paradox
TTITLE9=The Star in the East
EXTD=
EXTT0=
EXTT1=
EXTT2=
EXTT3=
EXTT4=
EXTT5=
EXTT6=
EXTT7=
EXTT8=
EXTT9=
PLAYORDER=
